<?xml version="1.0" encoding="utf-8"?>
<!-- Generator: Adobe Illustrator 25.4.1, SVG Export Plug-In . SVG Version: 6.00 Build 0)  -->
<svg version="1.1" id="Layer_1" xmlns="http://www.w3.org/2000/svg" xmlns:xlink="http://www.w3.org/1999/xlink" x="0px" y="0px"
	 viewBox="0 0 193 51" style="enable-background:new 0 0 193 51;" xml:space="preserve">
<style type="text/css">
	.st0{fill:none;}
	.st1{fill:#1A3662;}
	.st2{fill:#E97D59;}
</style>
<g>
	<rect x="2.5" y="0.4" class="st0" width="188.8" height="50.2"/>
	<rect x="2.5" y="0.4" class="st0" width="188.8" height="50.2"/>
	<rect x="2.5" y="0.4" class="st0" width="188.8" height="50.2"/>
	<rect x="2.5" y="0.4" class="st0" width="188.8" height="50.2"/>
	<rect x="2.5" y="0.4" class="st0" width="188.8" height="50.2"/>
	<polygon class="st1" points="152,15.4 173,15.4 191.7,9.3 167.9,9.2 	"/>
	<polygon class="st1" points="152,29.9 173,29.9 191.7,23.7 167.9,23.7 	"/>
	<polygon class="st1" points="155.9,48.5 191.7,38.2 171.8,38.2 	"/>
	<polygon class="st2" points="152,29.9 154,38.2 191.7,38.2 189.8,29.9 	"/>
	<polygon class="st2" points="152,15.4 154,23.7 191.7,23.7 189.8,15.4 	"/>
	<polygon class="st2" points="152,1 154,9.3 191.7,9.3 189.8,1 	"/>
	<path class="st1" d="M28.6,9.2c-0.4-4-3.1-6.4-7.5-6.4H8.3c-1.3,0-1.4-0.1-2.1-1.1L5.4,0.3C4.1,0.5,2.9,0.8,1.3,1.2
		c0,3,0.1,5.5,0.2,7.9h2.7c-1.1,4.9-1.4,6.6-1.4,7.5v15.1h26.1L29,21.3C29,17,28.8,12,28.6,9.2z M22.8,21.3l-0.1,4.2H9.1v-9.8
		c0-1.2,0.3-4.1,0.7-6.7h10.3c1.4,0,2.1,0.6,2.3,2.1C22.7,13,22.9,17.4,22.8,21.3z"/>
	<path class="st1" d="M38.2,20.2L39,18c1-2.9,1.7-5.5,1.7-7.3c0-1.2-0.3-1.8-1.6-1.8h-6.7c-0.2-2.6-0.2-5.2-0.2-7.9
		c1.3-0.3,2.5-0.6,4-0.8l0.9,1.3c0.7,1,0.8,1.1,2.1,1.1h1.7c4.3,0,6.1,2.7,6.1,6.5c0,3-1.2,7.7-3.2,12.9L38.2,20.2z"/>
	<path class="st1" d="M65.3,9H50.9c-0.1-2.4-0.2-4.8-0.2-7.8c1.5-0.4,2.7-0.6,4-0.8l0.9,1.3c0.7,1,0.8,1.1,2.1,1.1h18.1V7l-2.9,2.1
		c-1.1,0.8-1.2,1-1.2,2.5v20.1h-6.3V9z"/>
	<path class="st1" d="M77.4,28c3.6-0.3,7.8-1,10.4-1.9L82.9,8.4c-0.9-0.6-1.8-1.1-2.7-1.6C80.1,5,80,3.8,80,1.2
		c1.5-0.3,2.7-0.6,3.9-0.8l0.9,1.3c0.7,1,0.8,1.1,2.1,1.1h5v3.7l-1.7,1.3c-0.8,0.6-0.9,1-0.6,2l3.6,13.9c1.1-0.7,2.5-2.7,3.2-4.8
		c0.9-2.1,2.2-6.8,2.9-10.5l-2.8-1.9V2.9c3.3-0.2,6.5-0.2,11.2,0v3.8l-1.4,1.1c-0.9,0.7-1,1-1.3,2.3c-1.8,7.8-3.5,12.4-5.3,15.1
		c-2.1,3.1-6,5.4-11.4,6.9c-3.2,0.9-7.2,1.5-10.8,1.6V28z"/>
	<path class="st1" d="M111.6,25.7h15.2c-3.4-5.2-6-9.4-9.6-15.5c-0.8-1.2-1.1-1.4-2.5-1.4h-3.3c-0.2-2.3-0.3-4.3-0.4-7.7
		c1.5-0.4,2.5-0.6,3.9-0.8l0.9,1.3c0.7,1.1,0.8,1.1,1.8,1.1h0.3c1.8,0,2.3,0.3,3.2,1.9c2.1,3.7,4.2,7.4,6.1,10.7c1-2,2-4.3,3.2-6.9
		l-3.2-1.8C127,5.4,127,4.2,127,1.2c1.4-0.3,2.5-0.6,4.1-0.8l0.9,1.3c0.7,1,0.8,1.1,2.1,1.1h5.5v3.9L137.7,8c-1,0.6-1.2,0.9-2.1,2.3
		c-1.9,3.3-3.4,5.8-5.8,9.5l4.6,7.7l-0.4,4.4h-22.4V25.7z"/>
	<path class="st2" d="M6,42.8H2.9v7.1h5.5v-4.4C8.4,43.7,7.8,42.8,6,42.8z M7.2,48.9H4v-5.2h1.9c1.2,0,1.3,0.8,1.3,1.8V48.9z"/>
	<rect x="10.6" y="42.8" class="st2" width="1.2" height="3.7"/>
	<path class="st2" d="M18.3,49.9l-2.6-4.1c-0.5,0.1-0.8,0.6-0.8,1.3l0,2.8h-1.2v-2.4c0-1.1,0.3-2.1,1.5-2.4l-1.5-2.3h1.2l2.3,3.6
		c0.7-0.1,1.1-0.5,1.1-1.2v-2.4h1.1v2c0,1.4-0.7,2.1-1.8,2.3l1.9,2.8H18.3z"/>
	<path class="st2" d="M26.5,45c0,1-0.6,1.9-1.8,2.1l1.8,2.8h-5.3v-1h3.4l-3.9-6.2H22l2.2,3.5c0.8-0.2,1.1-0.6,1.1-1.3v-2.2h1.1V45z"
		/>
	<rect x="28.6" y="42.8" class="st2" width="1.2" height="7.1"/>
	<rect x="32.1" y="42.8" class="st2" width="1.2" height="3.7"/>
	<path class="st2" d="M44.5,49.9H39v-7.1h3.1c1.8,0,2.3,0.9,2.3,2.7V49.9z M43.4,45.5c0-1-0.1-1.8-1.3-1.8h-1.9v5.2h3.2V45.5z"/>
	<rect x="46.6" y="42.8" class="st2" width="1.2" height="3.7"/>
	<path class="st2" d="M51.8,42.8c1.9,0,2.3,1.3,2.3,3.1v4h-1.2v-4.1c0-1.1-0.2-2.1-1.2-2.1h-2.1v-1H51.8z"/>
	<rect x="56.1" y="42.8" class="st2" width="1.2" height="7.1"/>
	<path class="st2" d="M59.5,49.9h1.2V46h-1.2V49.9z M59.4,42.8v1h4.1v6.1h1.2v-7.1H59.4z"/>
	<polygon class="st2" points="66.4,41.3 66.4,43.8 69.9,43.8 67.8,49.9 69,49.9 71.5,42.8 67.5,42.8 67.5,41.3 	"/>
	<rect x="76.7" y="42.8" class="st2" width="1.2" height="3.7"/>
	<path class="st2" d="M85.5,42.8v3.4c0,2.8-1.3,3.7-3.2,3.7h-1.9l-0.7-7.1h1.2l0.6,6.2h0.8c1.3,0,2.1-0.4,2.1-3.1v-2h-1.6v-1H85.5z"
		/>
	<path class="st2" d="M90.1,42.8c1.9,0,2.8,0.9,2.8,2.9V47c0,1.9-1,2.8-2.8,2.8h-2.4v-1h2.4c0.9,0,1.5-0.4,1.5-1.8v-1.6
		c0-1.4-0.6-1.8-1.5-1.8h-1.3v2.9h-1.2v-3.8H90.1z"/>
	<path class="st2" d="M100.7,42.8h1.1v3.5c0,2.5-1.2,3.7-3.3,3.7h-3l-0.6-7.1H96l0.6,6.1h1.8c1.4,0,2.3-0.6,2.3-2.4V42.8z
		 M98.9,47.2h-1.1v-4.5h1.1V47.2z"/>
	<path class="st2" d="M106.2,48.9h1.9v-3.3c0-1.1-0.3-1.9-1.4-1.9h-0.8l-1.2,6.1h-1.2l1.3-6.1h-1.1v-1h3c2.1,0,2.6,1.1,2.6,3.5v3.7
		h-3V48.9z"/>
	<path class="st2" d="M119.9,42.8v3c0,2-0.6,3.1-2.8,3.9c-0.8,0.3-2.9,1.1-2.9,1.1l-0.3-0.9l1.9-0.7l-1.2-6.3h1.2l1,5.9
		c1.1-0.4,1.8-0.8,1.8-2.6v-3.3H119.9z"/>
	<rect x="122" y="42.8" class="st2" width="1.2" height="7.1"/>
	<rect x="125.5" y="42.8" class="st2" width="1.2" height="3.7"/>
	<path class="st2" d="M128.6,42.8l0.8,7.1h1.6c1.9,0,3.3-0.9,3.3-3.7v-3.4H128.6z M133.1,45.9c0,2.7-0.9,3-2.2,3h-0.4l-0.6-5.2h3.3
		V45.9z"/>
</g>
</svg>
